<?xml version="1.0" encoding="utf-8"?>
<!-- Generator: Adobe Illustrator 23.0.3, SVG Export Plug-In . SVG Version: 6.00 Build 0)  -->
<svg version="1.1" id="Layer_1" xmlns="http://www.w3.org/2000/svg" xmlns:xlink="http://www.w3.org/1999/xlink" x="0px" y="0px"
	 viewBox="0 0 666 599" style="enable-background:new 0 0 666 599;" xml:space="preserve">
<style type="text/css">
	.st0{fill:none;}
	.st1{fill-rule:evenodd;clip-rule:evenodd;}
</style>
<g>
	<g>
		<g>
			<path class="st0" d="M629.94-4.98L616.72,52.2l-6.61,28.59l-1.66,7.15l-1.73,7.11l-3.52,14.11
				c-9.51,37.43-20.45,73.22-37.87,105.12c-17.31,32.21-40.35,61.73-66.49,88.8c-26.16,27.1-55.39,51.9-85.91,75.41
				c-15.24,11.73-30.79,23.06-46.63,33.98c-15.85,10.9-32,21.36-48.41,31.4c-16.41,10.04-33.08,19.65-49.98,28.82
				c-16.92,9.15-34.09,17.83-51.47,26.06c-34.74,16.47-70.05,30.91-106.09,41.07c-35.99,10.15-72.77,15.88-109.04,14.65l-1.68,49.07
				c21.21,0.71,42.35-0.59,63.08-3.49c20.74-2.9,41.08-7.37,60.94-12.96c39.73-11.21,77.48-26.75,113.82-43.96
				c18.17-8.61,36.13-17.68,53.82-27.25c17.68-9.59,35.1-19.63,52.25-30.13c17.15-10.5,34.03-21.43,50.6-32.83
				c16.56-11.41,32.81-23.26,48.75-35.52c15.93-12.27,31.57-24.91,46.87-38.22c15.29-13.3,30.18-27.24,44.43-42
				c14.24-14.76,27.82-30.36,40.37-46.94c12.55-16.58,24.05-34.15,34.03-52.71l1.89-3.46c0.63-1.15,1.19-2.36,1.78-3.53l3.51-7.1
				l1.75-3.55l1.64-3.6c1.1-2.4,2.18-4.8,3.2-7.22c4.15-9.66,7.88-19.41,11.26-29.19c6.77-19.56,12.22-39.2,17.16-58.61l3.62-14.52
				l1.76-7.22l1.68-7.23l6.68-28.91L677.9,5.57L629.94-4.98z"/>
			<path class="st1" d="M194.68,557.6c-0.43,0.36-1.27,0.77-2.27,1.19C192.54,558.43,193.78,557.69,194.68,557.6z"/>
			<path class="st1" d="M147.44,540.16c-0.65,0.38-2.75,1.4-2.7,0.78C145.97,540.46,146.54,540.43,147.44,540.16z"/>
			<path class="st1" d="M143.45,540.74c-0.1,0.32-1.86,0.68-2.63,1.01C140.75,541.41,142.9,540.75,143.45,540.74z"/>
			<path class="st1" d="M134.32,549.16c-0.5,0.35-1.93,0.95-2.68,0.95C131.75,549.8,133.53,549.48,134.32,549.16z"/>
			<path class="st1" d="M127.78,545.65c-0.83,0.59-2.36,1.18-4.52,1.77C123.91,546.83,126.15,546.24,127.78,545.65z"/>
			<path class="st1" d="M121.58,574.83c-1.23,0.37-3.08,1.03-4.87,1.59c-1.79,0.54-3.53,0.94-4.49,0.9c1.56-0.23,3.2-0.67,4.78-1.19
				C118.58,575.61,120.13,575.09,121.58,574.83z"/>
			<path class="st1" d="M111.93,565.64c-2.87,1.46-8.52,2.1-12.31,3.55c-0.69-0.43,5.7-1.54,6.7-2.28c0.94-0.19,1.67-0.27,2.43-0.36
				C109.83,566.23,110.73,565.6,111.93,565.64z"/>
			<path class="st1" d="M74.03,572.37c0.14,0.29-0.11,0.54-1.17,0.7c-0.32-0.05-0.45-0.19-0.44-0.41
				C72.96,572.56,73.49,572.46,74.03,572.37z"/>
			<path class="st1" d="M58.83,578.91c-2.45,0.92-8.28,1.55-11.52,1.51c-0.42,0.12-0.43,0.32-1.24,0.37
				c-1.91,0.32-6.23,0.44-2.06,0.1C49.11,579.92,53.23,579.9,58.83,578.91z"/>
			<path class="st1" d="M56.13,573.21c-0.58,0.25-1.57,0.42-2.83,0.54C53.57,573.43,55.65,573.14,56.13,573.21z"/>
			<path class="st1" d="M54.17,589.23c-0.44,0.32-2.65,0.33-3.8,0.52C51.19,589.5,53.19,589.1,54.17,589.23z"/>
			<path class="st1" d="M53.36,575.56c-0.96,0.42-3.24,0.59-4.47,0.96C47.72,576.17,51.81,575.79,53.36,575.56z"/>
			<path class="st1" d="M51.28,574.09c-0.76,0.46-3.12,0.61-4.87,0.88C47.43,574.56,49.71,574.39,51.28,574.09z"/>
			<path class="st1" d="M50.41,592.53c-0.11,0.42-1.79,0.57-2.98,0.8C47.64,592.93,49.37,592.79,50.41,592.53z"/>
			<path class="st1" d="M48.25,589.86c-0.67,0.25-2.2,0.48-3.85,0.67c-1.66,0.14-3.44,0.23-4.63,0.29c1.48-0.25,2.79-0.41,4.14-0.53
				C45.25,590.15,46.62,590,48.25,589.86z"/>
			<path class="st1" d="M45.61,575.05c-2.04,0.83-5.14,0.61-6.92,0.69C40.6,575.28,43.45,575.68,45.61,575.05z"/>
			<path class="st1" d="M40.7,581.14c-0.79,0.26-2.16,0.4-3.31,0.58C37.12,581.22,39.31,581.27,40.7,581.14z"/>
			<path class="st1" d="M37,580.18c-0.96,0.37-1.84,0.3-3.3,0.34C34.02,580.23,36.01,580.32,37,580.18z"/>
			<path class="st1" d="M33.33,578.98c-0.43,0.35-3.51,0.64-2.87-0.05c0.88-0.11,0.78,0.12,0.81,0.31
				C32.26,579.22,32.17,578.96,33.33,578.98z"/>
			<path class="st1" d="M25.04,588.61C27.11,588.05,30.73,588.68,25.04,588.61L25.04,588.61z"/>
			<path class="st1" d="M20.51,593.17c-1.76,0.3-3.5,0.29-5.58,0.25C16.24,593.22,19.64,593.09,20.51,593.17z"/>
			<path class="st1" d="M19.18,593.92c0.63,0.35-2.83,0.44-2.14,0.05C17.75,593.95,18.46,593.94,19.18,593.92z"/>
			<path class="st1" d="M15.21,600.38c-0.62,0.26-2,0.29-3.09,0.2C12.44,600.28,14.71,600.26,15.21,600.38z"/>
			<path class="st1" d="M3,599.68C-0.66,600.18-1.92,599.6,3,599.68L3,599.68z"/>
			<path class="st1" d="M99.88,589.4c-0.66,0.31-1.62,0.6-2.04,0.93c-1.41-0.18-3.69,0.77-5.5,0.94
				C94.38,590.28,96.83,590.42,99.88,589.4z"/>
			<path class="st1" d="M51.17,587.38c-1.01,0.16-0.92-0.12-2.1,0.1c-0.12-0.18,0.39-0.25,0.41-0.41c-2.11,0.14-3.25,0.46-5.04,0.66
				c0.22-0.12,0.44-0.24,0.42-0.41c-2.31,0.89-5.18,0.02-10.11,0.71c2.35-0.53,6.16-0.82,9.89-1.13c3.72-0.4,7.37-0.73,9.43-1.04
				c-0.56,0.54-4.23,0.52-4.59,1.09C49.42,587.34,51.82,586.76,51.17,587.38z"/>
			<path class="st1" d="M45.62,576.62c-0.46,0.07-0.23,0.14,0.01,0.12c-0.1,0.29-1.79,0.26-2.04,0.22
				C44.05,576.57,49.45,576.14,45.62,576.62z"/>
			<path class="st1" d="M15.23,579.73l0.03-0.48c-2.63,0.04-6.84,0.07-8.6-0.39c1.56-0.15,3.98,0,6.3,0.1
				c0.58,0.02,1.15,0.04,1.7,0.06c0.55-0.01,1.08-0.03,1.57-0.06c0.98-0.07,1.81-0.18,2.36-0.39c0.53,0.11,1.51,0.08,2.04,0.19
				c1.8-0.25,3.65-0.4,5.52-0.49c0.93-0.04,1.88-0.08,2.82-0.11c0.94-0.06,1.89-0.12,2.84-0.19c3.8-0.23,7.64-0.43,11.37-0.96
				c-3.26,1.52-11.02,0.37-14.76,1.92c-0.63-0.05-0.02-0.12,0.42-0.13C25.5,578.92,19.51,578.82,15.23,579.73z"/>
			<path class="st1" d="M18.25,594.9c-0.67,0.24-1.88,0.33-2.62,0.54C15.24,595.43,17.37,594.6,18.25,594.9z"/>
			<path class="st1" d="M654.18,107.67c0.45-1.81,0.5-3.89,0.96-5.78c1.09-4.43,2.41-8.29,3.23-12.81
				c0.71-3.99,0.94-7.86,1.76-11.99c0.61-3.07,0.66-4.11,0.98-6.18c0.95-6.06,2.3-10.89,1.69-13.74c0.17-4.36,0.91-9.7,1.02-13.52
				c0.01-0.6,0.36-1.81,0.37-2.05c0.29-9.72-1.44-16.09-0.25-27.3c-0.47-1.1-1.32-1.96-1.75-4.01c-0.19-0.91-0.01-2.85-0.27-3.54
				c-0.95-2.54-3.26-1-3.4-5.39c-0.31-0.31-0.59,0.43-0.88,0.58c-2.89-0.76-5.72,0.34-7.74-1.17c-1.99,2.54-3.39,1.58-5.16,3.5
				c-1.1,1.19-2.46,3.7-3.61,5.28c-1.32,1.8-2.47,3.77-3.72,5.24c-0.88-0.22-1.63,2.3-2.48,2.63c-1.26,2.98-2.56,5.17-3.82,8.2
				c-0.36,0.24-0.71,0.95-1.09,0.93c-3.03,6.29-6.42,12.54-9.09,21.47c-0.24,0.8-0.74,2.52-0.97,3.54
				c-1.53,6.73-4.22,17.01-6.21,20.25c-0.37,1.19-0.08,1.24-0.46,2.42c-0.73,0.63-2.61,3.94-3.29,7.05
				c-0.24,1.07,0.08,3.11-0.32,5.48c-0.62,3.51-2.44,6.55-3.05,9.69c-0.28,1.44,0.02,3.12-0.19,4.64
				c-0.56,3.98-2.82,11.7-3.89,14.84c-0.84,2.49-1.65,3.27-2.04,5.21c-0.35,1.75-0.1,3.22,0.84,3.29c0.3,2.72-0.78,7.19-2.16,11.88
				c-1.37,4.7-3.02,9.65-3.76,13.49c-2.38,5.25-2.95,10.77-4.85,15.87c-0.37,1.02-1.04,2.17-1.42,3.21
				c-0.63,1.74-1.07,4.22-1.79,6.48c-0.61,1.94-1.24,3.74-1.84,5.46c-0.62,1.7-1.21,3.32-1.69,4.93c-1.5,2.18-2.37,4.21-3.02,6.24
				c-0.64,2.03-1.19,3.99-2.1,5.93c-0.69,1.46-1.66,2.75-2.48,4.35c-0.67,1.36-1.01,2.83-1.78,4.31c-0.76,1.48-1.87,2.85-2.57,4.29
				c-0.52,1.07-0.72,2.03-1.23,2.87c-0.65,1.11-1.29,1.69-1.9,2.9c-0.64,1.28-0.93,2.76-1.58,4.05c-0.59,1.18-1.23,2.36-1.89,3.55
				c-0.67,1.18-1.41,2.33-2.1,3.5c-1.39,2.33-2.68,4.67-3.58,7.05c-1.29,1.86-2.6,3.62-3.79,5.45c-1.2,1.82-2.34,3.67-3.51,5.56
				c-1.14,1.91-2.45,3.78-3.84,5.74c-1.39,1.95-2.9,3.96-4.62,6.04c-1.35,2.33-2.47,3.97-4.34,6.08c-0.31,0.55-0.08,0.72-0.69,1.49
				c-3.6,4.3-6.62,9.47-10.6,13.72c-0.02,0.25-0.07,0.51-0.24,0.86c-2.78,2.91-5.92,6.21-8.74,9.5c-1.42,1.64-2.8,3.25-4.08,4.74
				c-1.27,1.51-2.41,2.94-3.34,4.23c-3.69,3.26-7.25,7.79-11.41,12.2c-1.97,2.07-4.24,3.78-6.04,5.77c-1.78,1.93-3.9,4.08-6.11,6.13
				c-2.2,2.05-4.4,4.08-6.18,5.87c-1.06,1.07-1.88,2.34-2.93,3.38c-1.91,1.88-4.27,3.55-6.26,5.61c-3.81,3.99-8.29,7.89-12.63,11.67
				c-4.38,3.75-8.76,7.25-12.45,10.38c-2.32,1.9-4.05,3.83-6.57,6.07c-4.13,3.74-9.12,6.79-13.39,10.42c-1.08,0.91-2,1.95-2.99,2.8
				c-2.57,2.16-5.26,3.93-8.05,6.11c-1.71,1.33-3.39,2.7-5.07,4.07c-1.69,1.34-3.38,2.68-5.06,4.01c-3.37,2.63-6.71,5.21-10.18,7.37
				c-7.95,6.77-20.46,15.4-30.43,22.27c-1.89,2.07-4.35,3.06-6.62,4.7c-7.06,5-15.92,11.72-23.89,16.1
				c-15.82,10.67-32.49,20.8-49.36,30.47c-16.86,9.68-33.97,18.82-50.64,27.76c-2.87,0.86-6.84,3.2-9.06,4.6
				c-0.64-0.04-2.2,0.72-3.44,1.2c-3.94,2.76-9.59,4.75-14.95,7.37c-1.06,1.34-4.57,2.3-6.38,3.77c-1.05,0,1.04-0.86-0.57-0.41
				c-1.48,1.42-5.28,3.29-9.36,5.14c-4.07,1.88-8.48,3.56-11.1,4.89c0.38-0.15,0.54,0.01,0.07,0.23c-1.44,0.22-1.79,1.13-3.27,1.72
				c-4.89,2.07-9,4.07-12.89,6.09c-3.91,1.97-7.66,3.82-11.83,5.66c-1.13,0.23-4.2,0.67-5.02,1.49c1.58-0.45,3.53-1.17,3.59-0.59
				c-2.63,0.74-5.94,2.13-7.51,3.17c-3.18,1.14-4.89,1.45-7.63,2.78c-0.71,0.21,0.87,0.36-0.64,0.82c-4.6,1.13-6.71,2.34-10.82,3.34
				c-1.01,0.89-5.76,2.41-7.31,2.55c-1.26,0.61,1.59,0.02,0.5,0.48c-3.64,1.22-7.01,2.48-10.53,2.95c-0.78,0.47-1.25,0.96-2.63,1.39
				c-0.94,0.28,0.13-0.6-1.23-0.06c-1.24,0.64,1.16,0.27,0.94,0.76c-1.81,0.67-1.38,0.86-2.23,1.42c-2.68,0.35-4.3,1.48-6.64,2.19
				c-2.41,0.75-5.19,1.16-7.52,1.87c-2.01,0.58-2.78,1.25-5.11,1.66c-1.89,0.35-3.55,0.23-5.64,0.65c-1.09,0.31,0.82,0.3-0.75,0.62
				c-1.83,0.39-3.66,0.77-5.46,1.15c-1.81,0.34-3.58,0.68-5.3,1c-3.43,0.67-6.61,1.4-9.3,2.16c8.25-2.2,14.54-2.05,21.67-4.36
				c1.21,0.32,3.21-0.95,4.45-0.44c0.43-0.4-1.3-0.29,0.35-0.55c0.55-0.06,0.79,0.04,1.62-0.17c-0.9,0.84,0.64,0.53,1.32,0.82
				c3.09-0.71,5.83-1.41,8.46-2.08c1.32-0.33,2.61-0.66,3.9-0.99c1.29-0.35,2.58-0.7,3.91-1.05c0.95-0.4-0.77-0.18,0.32-0.57
				c1.99-0.62,3.56-0.93,5.9-1.71c0.84,0.28,2.5,0.09,1.8,0.91c-3.59,0.89-7.76,2.22-12.12,3.55c-4.38,1.23-8.94,2.52-13.24,3.52
				c-2.62,0.53-5.44,0.56-6.82,1.6c3.85-0.97,7.17-0.69,10.54-1.42c2.19-0.44,4.41-1.1,6.62-1.76c2.21-0.64,4.4-1.29,6.53-1.78
				c1.2-0.26,1.75-0.18,2.82-0.45c0.84-0.22,2.18-0.93,3.13-1.15c1.03-0.24,1.16,0,2.03-0.26c1.79-0.52,3.08-1.24,5.07-1.82
				c3.33-0.93,6.72-1.44,10.32-2.63c0.73,0.01,0.59,0.61-0.23,0.94c-4.34,1.22-5.07,1.46-9.48,2.77c0.51-0.09,0.84-0.07,0.86,0.14
				c-1.37,0.36-1.9,0.35-2.76,0.89c3.28-0.97,3.24,0.01,2.22,0.75c-4.12,1.09-8.71,2.3-13.12,3.46c-1.1,0.29-2.19,0.59-3.26,0.85
				c-1.08,0.24-2.14,0.48-3.16,0.71c-2.05,0.45-3.99,0.84-5.72,1.14c-0.7,0.42-1.11,0.86-2.33,1.24c-1.91,0.53-3.91,0.94-5.95,1.34
				c-2.04,0.39-4.12,0.79-6.22,1.19c-4.18,0.86-8.49,1.43-12.66,2.22c2.42-0.19,4.86-0.45,7.34-0.77c2.47-0.33,4.94-0.85,7.47-1.33
				c2.53-0.5,5.1-1.05,7.72-1.61c2.6-0.66,5.26-1.33,7.99-2.01c0.45,0.02,0.18,0.41,1.26,0.1c4.64-1.27,10.02-2.74,13.61-3.72
				c1.74,0.09,3.43,0.2,5.09,0.34c5.63-1.84,10.66-2.81,15.65-3.82c2.48-0.54,4.95-1.06,7.48-1.66c2.52-0.61,5.13-1.24,7.8-2.19
				c0.07,0.36,0.94,0.18,1.35,0.31c-0.77,0.58-1.22,1.15-2.14,1.73c-1.75,0.64-3.53,1.36-5.17,1.62c-4.41,1.95-9.9,3.84-15.79,5.49
				c-2.94,0.84-5.93,1.75-8.93,2.57c-3.01,0.81-5.99,1.64-8.85,2.54c-1.27,0.94-0.05,1.1,1.05,1.35c2.85-0.55,5.5-1.36,8.2-2.13
				c2.7-0.78,5.41-1.64,8.46-2.11c2.5,0.75,0.56,2.34-3.99,3.73c-1.88,0.6-4.13,1.19-6.52,1.8c-2.39,0.6-4.91,1.24-7.35,1.85
				c-2.43,0.63-4.81,1.12-6.89,1.54c-2.08,0.43-3.86,0.78-5.11,1.01c-5.59,1.55-11.3,2.63-16.98,3.84
				c-2.83,0.63-5.72,1.03-8.59,1.52c-2.88,0.46-5.75,0.93-8.64,1.39c-2.9,0.36-5.81,0.72-8.73,1.07c-2.92,0.35-5.83,0.77-8.79,0.97
				c-5.9,0.49-11.81,1.15-17.83,1.4c6.7,0.04,13.09-0.74,19.31-1.25c1.56-0.11,3.09-0.34,4.62-0.52c1.53-0.18,3.05-0.36,4.55-0.54
				c1.51-0.16,3.01-0.31,4.51-0.47c1.5-0.13,2.99-0.26,4.47-0.44c-0.08-0.25,0.33-0.43,1.25-0.54c5.79-0.82,11.92-1.64,17.76-2.88
				c2.93-0.58,5.82-1.15,8.59-1.77c2.75-0.68,5.39-1.36,7.86-2.03c1.09-0.02,2.4-0.21,3.82-0.49c0.71-0.14,1.45-0.3,2.2-0.47
				c0.74-0.2,1.5-0.4,2.26-0.6c3.03-0.81,6.07-1.63,8.27-1.74c-0.7,1.59-4,3.08-8.27,4.53c4.43-1.22,8.68-1.84,12.44-2.72
				c3.06-0.79,8.18-2.7,9.79-2.85c0.39-0.04-0.24,0.43,0.47,0.24c-1.25,0.34,2.19-0.71,2.44-0.81c1.61-0.63,1.28-0.62,3.2-1.19
				c2.5-0.73,2.46-0.7,4.12-0.89c8.68-2.46,16.77-5.71,25.28-8.46c0.87-0.32,2.64-0.96,2.78-1.01c0.82-0.21,0.23,0.26,1.29-0.08
				c0.6-0.2,0.24-0.37,1.13-0.66c3.31-1.1,7.09-2.37,10.3-3.7c8.1-3.21,17.71-6.87,24.2-9.69c1.48-0.55-0.26,0.66,1.69-0.2
				c5.64-2.31,11.46-4.68,17.28-7.26c5.86-2.51,11.73-5.21,17.63-7.95c0.9-0.38,0.42,0.43,1.69-0.26c1.66-0.69,1.01-1.03,2.48-1.69
				c0.97-0.28,1.87-0.54,2.47-0.51c6.77-3.12,13.59-6.4,20.31-10.01c3.37-1.79,6.76-3.57,10.12-5.41c3.36-1.86,6.72-3.72,10.08-5.58
				c3.15-1.71,6.27-3.47,9.38-5.23c3.12-1.74,6.23-3.48,9.32-5.21c6.12-3.56,12.21-6.98,18.03-10.5c4.58-2.78,9.04-5.53,13.34-8.27
				c4.3-2.74,8.5-5.37,12.68-7.73c5.32-3.62,10.34-6.89,15.27-10.11c4.9-3.26,9.72-6.47,14.72-9.8c3.58-2.45,7.38-4.96,11.02-7.39
				c3.64-2.43,7.07-4.89,9.98-7.08c1-0.76,2.06-1.84,3.26-2.69c1.81-1.26,3.86-2.23,5.65-3.52c4.83-3.51,9.54-7.41,14.28-10.99
				c5.36-3.97,10.57-7.72,15.75-11.71c2.94-2.24,5.52-4.7,8.39-6.98c1.89-1.53,4.08-2.85,6.05-4.43c2.75-2.22,5.48-4.51,8.12-6.84
				c2.65-2.33,5.27-4.61,7.89-6.69c6.97-5.61,14.34-11.18,20.78-17.66c3.92-3.16,8.06-6.92,12.18-10.61
				c4.11-3.71,8.01-7.59,11.46-10.97c3.17-2.36,5.99-5.24,8.87-8.21c2.9-2.96,5.71-6.21,8.88-9.34c0.67-0.67,1.24-0.99,1.93-1.64
				c2.49-2.29,4.86-4.84,7.21-7.42c2.33-2.6,4.68-5.18,6.84-7.83c4.35-5.29,8.53-10.28,12.19-14.43c1.06-1.81,2.28-3.29,3.55-4.68
				c0.65-0.69,1.29-1.37,1.94-2.05c0.63-0.7,1.26-1.41,1.87-2.16c2.64-3.22,4.65-6.55,7.06-9.75c0.76-1.07,1.64-1.91,2.44-2.98
				c2.41-3.28,4.43-6.71,6.86-10.47c3.56-5.67,8.43-11.03,11.77-18.04c3.56-4.79,8.18-12.38,10.97-18.63
				c1.5-2.48,2.87-5.04,4.2-7.64c0.66-1.3,1.31-2.61,1.95-3.92l0.95-1.98l0.88-2.01c2.3-5.37,4.61-10.78,6.95-16.23
				c1.65-3.64,3.51-6.8,4.41-10.75c2.04-3.67,3.38-8.45,5.05-13.19c1.67-4.68,3.62-9.48,5.28-14.37c2.39-6.98,4.4-15.86,7.1-20.77
				c3.31-1.69,0.69-7.4,2.68-12.84c1.3-2.82,1.94-2.24,3.23-3.27c1.09-2.55,1.47-5.1,1.9-7.72
				C651.46,113.52,653.18,111.65,654.18,107.67z M118.02,558.12c0.04-0.16-0.13-0.19-0.44-0.13
				C118.26,557.2,120.33,557.48,118.02,558.12z M117.28,558.58c-1.62,0.49-3.54,1.2-5.36,1.81c-1.84,0.57-3.58,1.04-4.82,1.13
				c-0.64,0.16,0.75,0.51-0.26,0.93c-1.48,0.07-3.19,0.28-5.61,0.9c-0.39-0.93,4.54-1.58,4.53-2.48c1.86-0.39,2.78-0.58,3.49-1.24
				c1.93-0.31,3.06-0.7,4.07-1.07c1.01-0.36,1.91-0.69,3.37-0.94C116.09,558.39,117.32,557.9,117.28,558.58z"/>
		</g>
	</g>
</g>
</svg>
